{
  "asset": {
    "version": "2.0",
    "generator": "THREE.GLTFExporter"
  },
  "scenes": [
    {
      "nodes": [
        0,
        1,
        2,
        3,
        9
      ],
      "name": "Scene"
    }
  ],
  "scene": 0,
  "nodes": [
    {
      "matrix": [
        -0.2908647428269262,
        -0.055189063886274425,
        -0.9551712048106182,
        0,
        0.5663932381446841,
        0.7946722584579202,
        -0.21839122503485697,
        0,
        0.7711008773539234,
        -0.6045247675783045,
        -0.19988344806390223,
        0,
        4.076245307922363,
        5.903861999511719,
        -1.0054539442062378,
        1
      ],
      "name": "Light"
    },
    {
      "matrix": [
        0.6859206666375535,
        -4.011331711240018e-9,
        -0.7276763385868836,
        0,
        0.6515582236083066,
        0.4452714146389205,
        0.6141703952861253,
        0,
        0.32401347963873483,
        -0.8953956629320512,
        0.30542086411130853,
        0,
        7.358891487121582,
        4.958309173583984,
        6.925790786743164,
        1
      ],
      "name": "Camera"
    },
    {
      "matrix": [
        -0.2908647992083644,
        -0.055188894092673024,
        -0.9551711772404516,
        0,
        0.7711007742843989,
        -0.6045248771376706,
        -0.19988352122063446,
        0,
        -0.5663933154267298,
        -0.7946722671179529,
        0.2183911050363676,
        0,
        4.076245307922363,
        5.903862476348877,
        -1.0054532289505004,
        1
      ],
      "name": "Light001"
    },
    {
      "matrix": [
        0.6859206402542223,
        3.0676648776761794e-7,
        -0.7276764213668281,
        0,
        0.32401357755035675,
        -0.8953960292930461,
        0.3054206105843891,
        0,
        -0.6515582673685805,
        -0.4452713193173663,
        -0.6141708108555779,
        0,
        7.358891487121582,
        4.958308696746826,
        6.925792217254639,
        1
      ],
      "name": "Camera001"
    },
    {
      "matrix": [
        1.399999976158142,
        0,
        0,
        0,
        0,
        0.9100000858306885,
        0,
        0,
        0,
        0,
        1,
        0,
        0,
        0,
        0,
        1
      ],
      "name": "Plane002_Door_0",
      "mesh": 0
    },
    {
      "matrix": [
        100,
        0,
        0,
        0,
        0,
        -0.000013435885648505063,
        -99.99999657714511,
        0,
        0,
        99.99999657714511,
        -0.000013435885648505063,
        0,
        -0.0000029802322387695312,
        0,
        0,
        1
      ],
      "name": "Plane002",
      "children": [
        4
      ]
    },
    {
      "name": "RootNode",
      "children": [
        5
      ]
    },
    {
      "matrix": [
        1,
        0,
        0,
        0,
        0,
        -1.3435885648505064e-7,
        0.9999999657714511,
        0,
        0,
        -0.9999999657714511,
        -1.3435885648505064e-7,
        0,
        0,
        0,
        0,
        1
      ],
      "name": "Door_Component_BI3fbx",
      "children": [
        6
      ]
    },
    {
      "name": "RootNode_(model_correction_matrix)",
      "children": [
        7
      ]
    },
    {
      "matrix": [
        0.014999999664723873,
        0,
        0,
        0,
        0,
        -0.014999999664723873,
        -4.030765604456885e-9,
        0,
        0,
        4.030765604456885e-9,
        -0.014999999664723873,
        0,
        0,
        0,
        0,
        1
      ],
      "name": "RootNode_(gltf_orientation_matrix)",
      "children": [
        8
      ]
    }
  ],
  "bufferViews": [
    {
      "buffer": 0,
      "byteOffset": 0,
      "byteLength": 78336,
      "target": 34962,
      "byteStride": 12
    },
    {
      "buffer": 0,
      "byteOffset": 78336,
      "byteLength": 78336,
      "target": 34962,
      "byteStride": 12
    },
    {
      "buffer": 0,
      "byteOffset": 156672,
      "byteLength": 52224,
      "target": 34962,
      "byteStride": 8
    },
    {
      "buffer": 0,
      "byteOffset": 208896,
      "byteLength": 13056,
      "target": 34963
    }
  ],
  "buffers": [
    {
      "byteLength": 221952,
      "uri": "data:application/octet-stream;base64,"
    }
  ],
  "accessors": [
    {
      "bufferView": 0,
      "componentType": 5126,
      "count": 6528,
      "max": [
        0.48499998450279236,
        0,
        0.09004352986812591
      ],
      "min": [
        -0.4850000739097595,
        -2.059999942779541,
        -0.09134131669998169
      ],
      "type": "VEC3"
    },
    {
      "bufferView": 1,
      "componentType": 5126,
      "count": 6528,
      "max": [
        1.0000001192092895,
        1,
        1
      ],
      "min": [
        -1,
        -1,
        -1
      ],
      "type": "VEC3"
    },
    {
      "bufferView": 2,
      "componentType": 5126,
      "count": 6528,
      "max": [
        1,
        1
      ],
      "min": [
        0,
        0
      ],
      "type": "VEC2"
    },
    {
      "bufferView": 3,
      "componentType": 5123,
      "count": 6528,
      "max": [
        6527
      ],
      "min": [
        0
      ],
      "type": "SCALAR"
    }
  ],
  "materials": [
    {
      "pbrMetallicRoughness": {
        "metallicFactor": 0,
        "roughnessFactor": 0.5,
        "baseColorTexture": {
          "index": 0
        }
      },
      "doubleSided": true,
      "name": "Material.001"
    }
  ],
  "textures": [
    {
      "sampler": 0,
      "source": 0
    }
  ],
  "samplers": [
    {
      "magFilter": 9729,
      "minFilter": 9987
    }
  ],
  "images": [
    {
      "mimeType": "image/png",
      "uri": "data:image/png;base64,"
    }
  ],
  "meshes": [
    {
      "primitives": [
        {
          "mode": 4,
          "attributes": {
            "POSITION": 0,
            "NORMAL": 1,
            "TEXCOORD_0": 2
          },
          "indices": 3,
          "material": 0
        }
      ]
    }
  ]
}