{
  "asset": {
    "version": "2.0",
    "generator": "THREE.GLTFExporter"
  },
  "scenes": [
    {
      "nodes": [
        0,
        1,
        2,
        3,
        4,
        5,
        6,
        7,
        8,
        9,
        10,
        11,
        12,
        13,
        24
      ],
      "name": "Scene"
    }
  ],
  "scene": 0,
  "nodes": [
    {
      "matrix": [
        -0.2908647428269262,
        -0.055189063886274425,
        -0.9551712048106182,
        0,
        0.5663932381446841,
        0.7946722584579202,
        -0.21839122503485697,
        0,
        0.7711008773539234,
        -0.6045247675783045,
        -0.19988344806390223,
        0,
        4.076245307922363,
        5.903861999511719,
        -1.0054539442062378,
        1
      ],
      "name": "Light"
    },
    {
      "matrix": [
        0.6859206666375535,
        -4.011331711240018e-9,
        -0.7276763385868836,
        0,
        0.6515582236083066,
        0.4452714146389205,
        0.6141703952861253,
        0,
        0.32401347963873483,
        -0.8953956629320512,
        0.30542086411130853,
        0,
        7.358891487121582,
        4.958309173583984,
        6.925790786743164,
        1
      ],
      "name": "Camera"
    },
    {
      "matrix": [
        -0.2908647992083644,
        -0.055188894092673024,
        -0.9551711772404516,
        0,
        0.7711007742843989,
        -0.6045248771376706,
        -0.19988352122063446,
        0,
        -0.5663933154267298,
        -0.7946722671179529,
        0.2183911050363676,
        0,
        4.076245307922363,
        5.903862476348877,
        -1.0054532289505004,
        1
      ],
      "name": "Light001"
    },
    {
      "matrix": [
        0.6859206402542223,
        3.0676648776761794e-7,
        -0.7276764213668281,
        0,
        0.32401357755035675,
        -0.8953960292930461,
        0.3054206105843891,
        0,
        -0.6515582673685805,
        -0.4452713193173663,
        -0.6141708108555779,
        0,
        7.358891487121582,
        4.958308696746826,
        6.925792217254639,
        1
      ],
      "name": "Camera001"
    },
    {
      "matrix": [
        -0.2908644003842742,
        -0.05518914638399863,
        -0.9551713080157178,
        0,
        -0.5663930100077472,
        -0.7946726120290037,
        0.21839100894682062,
        0,
        -0.7711011786720441,
        0.6045244682358621,
        0.19988307650364412,
        0,
        4.076245307922363,
        5.903862953186035,
        -1.0054525136947631,
        1
      ],
      "name": "Light002"
    },
    {
      "matrix": [
        0.6859205500851484,
        5.51670996884468e-7,
        -0.7276764554862716,
        0,
        -0.6515582145691248,
        -0.44527133010040565,
        -0.6141705383614742,
        0,
        -0.32401376035110374,
        0.895395754492629,
        -0.3054204142263899,
        0,
        7.358891487121582,
        4.958308219909668,
        6.925793647766113,
        1
      ],
      "name": "Camera002"
    },
    {
      "matrix": [
        -0.2908643608059833,
        -0.055189339250965475,
        -0.9551714164382687,
        0,
        -0.7711014257485473,
        0.6045241919589994,
        0.19988298383798408,
        0,
        0.566392875269635,
        0.7946727331753998,
        -0.21839118871815977,
        0,
        4.076245307922363,
        5.903863430023193,
        -1.0054517984390258,
        1
      ],
      "name": "Light003"
    },
    {
      "matrix": [
        0.6859205429477426,
        4.567141926870022e-7,
        -0.7276764583177608,
        0,
        -0.32401389049443896,
        0.8953955878667399,
        -0.30542060572147367,
        0,
        0.651558153012259,
        0.4452715437038455,
        0.6141703747586482,
        0,
        7.358891487121582,
        4.95830774307251,
        6.925795078277588,
        1
      ],
      "name": "Camera003"
    },
    {
      "matrix": [
        -0.290864631034788,
        -0.05518932046221359,
        -0.9551711758288812,
        0,
        0.566392498789801,
        0.7946727822528614,
        -0.21839120304157333,
        0,
        0.771101402892028,
        -0.6045240434905956,
        -0.19988339649295428,
        0,
        4.076245307922363,
        5.903863906860352,
        -1.0054510831832885,
        1
      ],
      "name": "Light001"
    },
    {
      "matrix": [
        0.6859204697686518,
        5.394750939302639e-7,
        -0.7276766164038548,
        0,
        0.6515583018907858,
        0.4452713084679427,
        0.6141705822456984,
        0,
        0.324013946148078,
        -0.8953958481356352,
        0.3054203122774304,
        0,
        7.358891487121582,
        4.958307266235352,
        6.9257965087890625,
        1
      ],
      "name": "Camera001"
    },
    {
      "matrix": [
        -0.29086465644341253,
        0.9551712136633963,
        -0.05518815811080913,
        0,
        0.566393549436194,
        0.21839052689235494,
        0.7946722231351728,
        0,
        0.7711005948408669,
        0.19988383540027144,
        -0.6045249047804333,
        0,
        4.076245307922363,
        1.0054503679275512,
        5.90386438369751,
        1
      ],
      "name": "Light002"
    },
    {
      "matrix": [
        0.6859205023610784,
        0.7276765189841861,
        7.725862261054317e-7,
        0,
        0.6515583828488722,
        -0.6141708567716151,
        0.4452708151910727,
        0,
        0.32401356456312413,
        -0.3054198893991966,
        -0.8953961212701529,
        0,
        7.358891487121582,
        -6.925797939300537,
        4.958306789398193,
        1
      ],
      "name": "Camera002"
    },
    {
      "matrix": [
        -0.29086567988532863,
        0.05518806251894226,
        0.9551710551605819,
        0,
        0.5663931046550292,
        -0.7946726925120089,
        0.2183909214979618,
        0,
        0.771100718363309,
        0.604524624270093,
        0.1998845999749932,
        0,
        4.076245307922363,
        -5.903864860534668,
        1.005449652671814,
        1
      ],
      "name": "Light003"
    },
    {
      "matrix": [
        0.6859203080525353,
        -6.473976501553125e-7,
        0.7276767245070399,
        0,
        0.6515587160255034,
        -0.4452706660908152,
        -0.6141707106442249,
        0,
        0.3240133561458709,
        0.8953962375627986,
        -0.3054198316164194,
        0,
        7.358891487121582,
        -4.958306312561035,
        -6.925799369812012,
        1
      ],
      "name": "Camera003"
    },
    {
      "matrix": [
        1,
        0,
        0,
        0,
        0,
        1,
        0,
        0,
        0,
        0,
        1,
        0,
        0,
        0,
        -0.33018824458122253,
        1
      ],
      "name": "Circle002_Glossy_0",
      "mesh": 0
    },
    {
      "matrix": [
        1,
        0,
        0,
        0,
        0,
        1,
        0,
        0,
        0,
        0,
        1,
        0,
        0.8097034692764282,
        0.04273784160614014,
        0.8028553128242493,
        1
      ],
      "name": "Circle002",
      "children": [
        14
      ]
    },
    {
      "matrix": [
        1,
        0,
        0,
        0,
        0,
        1,
        0,
        0,
        0,
        0,
        0.5487881898880005,
        0,
        0,
        0,
        0,
        1
      ],
      "name": "Plane001_Door_0",
      "mesh": 1
    },
    {
      "matrix": [
        1,
        0,
        0,
        0,
        0,
        1,
        0,
        0,
        0,
        0,
        1,
        0,
        0,
        0,
        -0.33116599917411804,
        1
      ],
      "name": "Plane001_Glossy_0",
      "mesh": 2
    },
    {
      "matrix": [
        1,
        0,
        0,
        0,
        0,
        1,
        0,
        0,
        0,
        0,
        1,
        0,
        0.8517751097679138,
        0.0166003555059433,
        0.7818396687507629,
        1
      ],
      "name": "Plane003"
    },
    {
      "matrix": [
        1,
        0,
        0,
        0,
        0,
        1,
        0,
        0,
        0,
        0,
        1,
        0,
        -0.43513479828834533,
        -0.10139739513397217,
        0.24896162748336792,
        1
      ],
      "name": "Plane001",
      "children": [
        15,
        16,
        17,
        18
      ]
    },
    {
      "matrix": [
        100,
        0,
        0,
        0,
        0,
        -0.000013435885648505063,
        -99.99999657714511,
        0,
        0,
        99.99999657714511,
        -0.000013435885648505063,
        0,
        -0.0000029802322387695312,
        0,
        0,
        1
      ],
      "name": "Plane002",
      "children": [
        19
      ]
    },
    {
      "name": "RootNode",
      "children": [
        20
      ]
    },
    {
      "matrix": [
        1,
        0,
        0,
        0,
        0,
        -1.3435885648505064e-7,
        0.9999999657714511,
        0,
        0,
        -0.9999999657714511,
        -1.3435885648505064e-7,
        0,
        0,
        0,
        0,
        1
      ],
      "name": "Door_Component_BI3fbx",
      "children": [
        21
      ]
    },
    {
      "name": "RootNode_(model_correction_matrix)",
      "children": [
        22
      ]
    },
    {
      "matrix": [
        0.019999999552965164,
        0,
        0,
        0,
        0,
        -2.6871780706894125e-9,
        0.020000008004849186,
        0,
        0,
        -0.020000008004849186,
        -2.6871780706894125e-9,
        0,
        0,
        0,
        0,
        1
      ],
      "name": "RootNode_(gltf_orientation_matrix)",
      "children": [
        23
      ]
    }
  ],
  "bufferViews": [
    {
      "buffer": 0,
      "byteOffset": 0,
      "byteLength": 24768,
      "target": 34962,
      "byteStride": 12
    },
    {
      "buffer": 0,
      "byteOffset": 24768,
      "byteLength": 24768,
      "target": 34962,
      "byteStride": 12
    },
    {
      "buffer": 0,
      "byteOffset": 49536,
      "byteLength": 16512,
      "target": 34962,
      "byteStride": 8
    },
    {
      "buffer": 0,
      "byteOffset": 66048,
      "byteLength": 4128,
      "target": 34963
    },
    {
      "buffer": 0,
      "byteOffset": 70176,
      "byteLength": 27216,
      "target": 34962,
      "byteStride": 12
    },
    {
      "buffer": 0,
      "byteOffset": 97392,
      "byteLength": 27216,
      "target": 34962,
      "byteStride": 12
    },
    {
      "buffer": 0,
      "byteOffset": 124608,
      "byteLength": 18144,
      "target": 34962,
      "byteStride": 8
    },
    {
      "buffer": 0,
      "byteOffset": 142752,
      "byteLength": 4536,
      "target": 34963
    },
    {
      "buffer": 0,
      "byteOffset": 147288,
      "byteLength": 61524,
      "target": 34962,
      "byteStride": 12
    },
    {
      "buffer": 0,
      "byteOffset": 208812,
      "byteLength": 61524,
      "target": 34962,
      "byteStride": 12
    },
    {
      "buffer": 0,
      "byteOffset": 270336,
      "byteLength": 41016,
      "target": 34962,
      "byteStride": 8
    },
    {
      "buffer": 0,
      "byteOffset": 311352,
      "byteLength": 10256,
      "target": 34963
    }
  ],
  "buffers": [
    {
      "byteLength": 321608,
      "uri": "data:application/octet-stream;base64,"
    }
  ],
  "accessors": [
    {
      "bufferView": 0,
      "componentType": 5126,
      "count": 2064,
      "max": [
        0.010904509574174881,
        0.058108747005462646,
        0.012893843464553356
      ],
      "min": [
        -0.1196504533290863,
        -0.1118696928024292,
        -0.012893888168036937
      ],
      "type": "VEC3"
    },
    {
      "bufferView": 1,
      "componentType": 5126,
      "count": 2064,
      "max": [
        1,
        1,
        1
      ],
      "min": [
        -1,
        -1,
        -1
      ],
      "type": "VEC3"
    },
    {
      "bufferView": 2,
      "componentType": 5126,
      "count": 2064,
      "max": [
        1,
        1
      ],
      "min": [
        0,
        0
      ],
      "type": "VEC2"
    },
    {
      "bufferView": 3,
      "componentType": 5123,
      "count": 2064,
      "max": [
        2063
      ],
      "min": [
        0
      ],
      "type": "SCALAR"
    },
    {
      "bufferView": 4,
      "componentType": 5126,
      "count": 2268,
      "max": [
        0.8601347804069519,
        0.03585737198591232,
        1.7510383129119873
      ],
      "min": [
        0.010134723037481308,
        -0.004142613150179386,
        -0.2489616423845291
      ],
      "type": "VEC3"
    },
    {
      "bufferView": 5,
      "componentType": 5126,
      "count": 2268,
      "max": [
        1,
        1,
        1
      ],
      "min": [
        -1,
        -1,
        -1
      ],
      "type": "VEC3"
    },
    {
      "bufferView": 6,
      "componentType": 5126,
      "count": 2268,
      "max": [
        1,
        1
      ],
      "min": [
        0,
        0
      ],
      "type": "VEC2"
    },
    {
      "bufferView": 7,
      "componentType": 5123,
      "count": 2268,
      "max": [
        2267
      ],
      "min": [
        0
      ],
      "type": "SCALAR"
    },
    {
      "bufferView": 8,
      "componentType": 5126,
      "count": 5127,
      "max": [
        0.8362786769866943,
        0.04641195759177208,
        0.8294305801391602
      ],
      "min": [
        1.1253481480011373e-9,
        -0.014697279781103134,
        0.0665593296289444
      ],
      "type": "VEC3"
    },
    {
      "bufferView": 9,
      "componentType": 5126,
      "count": 5127,
      "max": [
        1,
        1,
        1
      ],
      "min": [
        -1,
        -1,
        -1
      ],
      "type": "VEC3"
    },
    {
      "bufferView": 10,
      "componentType": 5126,
      "count": 5127,
      "max": [
        1,
        1
      ],
      "min": [
        0,
        0
      ],
      "type": "VEC2"
    },
    {
      "bufferView": 11,
      "componentType": 5123,
      "count": 5127,
      "max": [
        5126
      ],
      "min": [
        0
      ],
      "type": "SCALAR"
    }
  ],
  "materials": [
    {
      "pbrMetallicRoughness": {
        "metallicFactor": 0,
        "roughnessFactor": 0.5,
        "baseColorTexture": {
          "index": 0
        }
      },
      "doubleSided": true,
      "name": "Material.001"
    },
    {
      "pbrMetallicRoughness": {
        "metallicFactor": 0,
        "roughnessFactor": 0.5,
        "baseColorTexture": {
          "index": 1
        }
      },
      "doubleSided": true,
      "name": "Material.003"
    },
    {
      "pbrMetallicRoughness": {
        "metallicFactor": 0,
        "roughnessFactor": 0.5,
        "baseColorTexture": {
          "index": 2
        }
      },
      "doubleSided": true,
      "name": "Material.002"
    }
  ],
  "textures": [
    {
      "sampler": 0,
      "source": 0
    },
    {
      "sampler": 1,
      "source": 1
    },
    {
      "sampler": 2,
      "source": 2
    }
  ],
  "samplers": [
    {
      "magFilter": 9729,
      "minFilter": 9987
    },
    {
      "magFilter": 9729,
      "minFilter": 9987
    },
    {
      "magFilter": 9729,
      "minFilter": 9987
    }
  ],
  "images": [
    {
      "mimeType": "image/png",
      "uri": "data:image/png;base64,"
    },
    {
      "mimeType": "image/png",
      "uri": "data:image/png;base64,"
    },
    {
      "mimeType": "image/png",
      "uri": "data:image/png;base64,"
    }
  ],
  "meshes": [
    {
      "primitives": [
        {
          "mode": 4,
          "attributes": {
            "POSITION": 0,
            "NORMAL": 1,
            "TEXCOORD_0": 2
          },
          "indices": 3,
          "material": 0
        }
      ]
    },
    {
      "primitives": [
        {
          "mode": 4,
          "attributes": {
            "POSITION": 4,
            "NORMAL": 5,
            "TEXCOORD_0": 6
          },
          "indices": 7,
          "material": 1
        }
      ]
    },
    {
      "primitives": [
        {
          "mode": 4,
          "attributes": {
            "POSITION": 8,
            "NORMAL": 9,
            "TEXCOORD_0": 10
          },
          "indices": 11,
          "material": 2
        }
      ]
    }
  ]
}